# Made in Blockbench 5.2.1
mtllib ns_pids.mtl

o cube
v 0.75 0.9991391034634417 -0.38153915840819363
v 0.75 0.9667867228256266 -0.5022798866943271
v 0.75 0.03321327717437339 -0.12272011330567287
v 0.75 0.0008608965365582977 -0.2434608415918064
v -1.0625 0.9667867228256266 -0.5022798866943271
v -1.0625 0.9991391034634417 -0.38153915840819363
v -1.0625 0.0008608965365582977 -0.2434608415918064
v -1.0625 0.03321327717437339 -0.12272011330567287
vt 0.015625 0.921875
vt 0.2421875 0.921875
vt 0.2421875 0.796875
vt 0.015625 0.796875
vt 0 0.921875
vt 0.015625 0.921875
vt 0.015625 0.796875
vt 0 0.796875
vt 0.2578125 0.921875
vt 0.484375 0.921875
vt 0.484375 0.796875
vt 0.2578125 0.796875
vt 0.2421875 0.921875
vt 0.2578125 0.921875
vt 0.2578125 0.796875
vt 0.2421875 0.796875
vt 0.2421875 0.921875
vt 0.015625 0.921875
vt 0.015625 0.9375
vt 0.2421875 0.9375
vt 0.46875 0.9375
vt 0.2421875 0.9375
vt 0.2421875 0.921875
vt 0.46875 0.921875
vn 0 -0.25881904510252074 -0.9659258262890683
vn 1 0 0
vn 0 0.25881904510252074 0.9659258262890683
vn -1 0 0
vn 0 0.9659258262890683 -0.25881904510252074
vn 0 -0.9659258262890683 0.25881904510252074
usemtl m_7118bb91-6055-9362-d056-2754b27fb61a
f 4/4/1 7/3/1 5/2/1 2/1/1
f 3/8/2 4/7/2 2/6/2 1/5/2
f 8/12/3 3/11/3 1/10/3 6/9/3
f 7/16/4 8/15/4 6/14/4 5/13/4
f 6/20/5 1/19/5 2/18/5 5/17/5
f 7/24/6 4/23/6 3/22/6 8/21/6
o cube
v 1.5625 1.0072271986228953 -0.3513539763366602
v 1.5625 0.9586986276661729 -0.5324650687658605
v 1.5625 0.041301372333827135 -0.09253493123413947
v 1.5625 -0.007227198622895448 -0.2736460236633398
v 0.75 0.9586986276661729 -0.5324650687658605
v 0.75 1.0072271986228953 -0.3513539763366602
v 0.75 -0.007227198622895448 -0.2736460236633398
v 0.75 0.041301372333827135 -0.09253493123413947
vt 0.0234375 0.7734375
vt 0.125 0.7734375
vt 0.125 0.6484375
vt 0.0234375 0.6484375
vt 0 0.7734375
vt 0.0234375 0.7734375
vt 0.0234375 0.6484375
vt 0 0.6484375
vt 0.1484375 0.7734375
vt 0.25 0.7734375
vt 0.25 0.6484375
vt 0.1484375 0.6484375
vt 0.125 0.7734375
vt 0.1484375 0.7734375
vt 0.1484375 0.6484375
vt 0.125 0.6484375
vt 0.125 0.7734375
vt 0.0234375 0.7734375
vt 0.0234375 0.796875
vt 0.125 0.796875
vt 0.2265625 0.796875
vt 0.125 0.796875
vt 0.125 0.7734375
vt 0.2265625 0.7734375
vn 0 -0.25881904510252074 -0.9659258262890683
vn 1 0 0
vn 0 0.25881904510252074 0.9659258262890683
vn -1 0 0
vn 0 0.9659258262890683 -0.25881904510252074
vn 0 -0.9659258262890683 0.25881904510252074
usemtl m_7118bb91-6055-9362-d056-2754b27fb61a
f 12/28/7 15/27/7 13/26/7 10/25/7
f 11/32/8 12/31/8 10/30/8 9/29/8
f 16/36/9 11/35/9 9/34/9 14/33/9
f 15/40/10 16/39/10 14/38/10 13/37/10
f 14/44/11 9/43/11 10/42/11 13/41/11
f 15/48/12 12/47/12 11/46/12 16/45/12
o cube
v -1.0625 1.0072271986228953 -0.3513539763366602
v -1.0625 0.9586986276661729 -0.5324650687658605
v -1.0625 0.041301372333827135 -0.09253493123413947
v -1.0625 -0.007227198622895448 -0.2736460236633398
v -1.5625 0.9586986276661729 -0.5324650687658605
v -1.5625 1.0072271986228953 -0.3513539763366602
v -1.5625 -0.007227198622895448 -0.2736460236633398
v -1.5625 0.041301372333827135 -0.09253493123413947
vt 0.2734375 0.7734375
vt 0.3359375 0.7734375
vt 0.3359375 0.6484375
vt 0.2734375 0.6484375
vt 0.25 0.7734375
vt 0.2734375 0.7734375
vt 0.2734375 0.6484375
vt 0.25 0.6484375
vt 0.359375 0.7734375
vt 0.421875 0.7734375
vt 0.421875 0.6484375
vt 0.359375 0.6484375
vt 0.3359375 0.7734375
vt 0.359375 0.7734375
vt 0.359375 0.6484375
vt 0.3359375 0.6484375
vt 0.3359375 0.7734375
vt 0.2734375 0.7734375
vt 0.2734375 0.796875
vt 0.3359375 0.796875
vt 0.3984375 0.796875
vt 0.3359375 0.796875
vt 0.3359375 0.7734375
vt 0.3984375 0.7734375
vn 0 -0.25881904510252074 -0.9659258262890683
vn 1 0 0
vn 0 0.25881904510252074 0.9659258262890683
vn -1 0 0
vn 0 0.9659258262890683 -0.25881904510252074
vn 0 -0.9659258262890683 0.25881904510252074
usemtl m_7118bb91-6055-9362-d056-2754b27fb61a
f 20/52/13 23/51/13 21/50/13 18/49/13
f 19/56/14 20/55/14 18/54/14 17/53/14
f 24/60/15 19/59/15 17/58/15 22/57/15
f 23/64/16 24/63/16 22/62/16 21/61/16
f 22/68/17 17/67/17 18/66/17 21/65/17
f 23/72/18 20/71/18 19/70/18 24/69/18
o cube
v 1.5625 1.0675975627659624 -0.36753016665556776
v 1.5625 1.0190689918092395 -0.548641259084768
v 1.5625 1.0072271986228953 -0.3513539763366602
v 1.5625 0.9586986276661729 -0.5324650687658605
v -1.5625 1.0190689918092395 -0.548641259084768
v -1.5625 1.0675975627659624 -0.36753016665556776
v -1.5625 0.9586986276661729 -0.5324650687658605
v -1.5625 1.0072271986228953 -0.3513539763366602
vt 0.0234375 0.9765625
vt 0.4140625 0.9765625
vt 0.4140625 0.96875
vt 0.0234375 0.96875
vt 0 0.9765625
vt 0.0234375 0.9765625
vt 0.0234375 0.96875
vt 0 0.96875
vt 0.4375 0.9765625
vt 0.828125 0.9765625
vt 0.828125 0.96875
vt 0.4375 0.96875
vt 0.4140625 0.9765625
vt 0.4375 0.9765625
vt 0.4375 0.96875
vt 0.4140625 0.96875
vt 0.4140625 0.9765625
vt 0.0234375 0.9765625
vt 0.0234375 1
vt 0.4140625 1
vt 0.8046875 1
vt 0.4140625 1
vt 0.4140625 0.9765625
vt 0.8046875 0.9765625
vn 0 -0.25881904510252074 -0.9659258262890683
vn 1 0 0
vn 0 0.25881904510252074 0.9659258262890683
vn -1 0 0
vn 0 0.9659258262890683 -0.25881904510252074
vn 0 -0.9659258262890683 0.25881904510252074
usemtl m_7118bb91-6055-9362-d056-2754b27fb61a
f 28/76/19 31/75/19 29/74/19 26/73/19
f 27/80/20 28/79/20 26/78/20 25/77/20
f 32/84/21 27/83/21 25/82/21 30/81/21
f 31/88/22 32/87/22 30/86/22 29/85/22
f 30/92/23 25/91/23 26/90/23 29/89/23
f 31/96/24 28/95/24 27/94/24 32/93/24
o cube
v 1.5625 0.041301372333827135 -0.09253493123413947
v 1.5625 -0.007227198622895448 -0.2736460236633398
v 1.5625 -0.0190689918092396 -0.07635874091523193
v 1.5625 -0.0675975627659623 -0.25746983334443224
v -1.5625 -0.007227198622895448 -0.2736460236633398
v -1.5625 0.041301372333827135 -0.09253493123413947
v -1.5625 -0.0675975627659623 -0.25746983334443224
v -1.5625 -0.0190689918092396 -0.07635874091523193
vt 0.0234375 0.9453125
vt 0.4140625 0.9453125
vt 0.4140625 0.9375
vt 0.0234375 0.9375
vt 0 0.9453125
vt 0.0234375 0.9453125
vt 0.0234375 0.9375
vt 0 0.9375
vt 0.4375 0.9453125
vt 0.828125 0.9453125
vt 0.828125 0.9375
vt 0.4375 0.9375
vt 0.4140625 0.9453125
vt 0.4375 0.9453125
vt 0.4375 0.9375
vt 0.4140625 0.9375
vt 0.4140625 0.9453125
vt 0.0234375 0.9453125
vt 0.0234375 0.96875
vt 0.4140625 0.96875
vt 0.8046875 0.96875
vt 0.4140625 0.96875
vt 0.4140625 0.9453125
vt 0.8046875 0.9453125
vn 0 -0.25881904510252074 -0.9659258262890683
vn 1 0 0
vn 0 0.25881904510252074 0.9659258262890683
vn -1 0 0
vn 0 0.9659258262890683 -0.25881904510252074
vn 0 -0.9659258262890683 0.25881904510252074
usemtl m_7118bb91-6055-9362-d056-2754b27fb61a
f 36/100/25 39/99/25 37/98/25 34/97/25
f 35/104/26 36/103/26 34/102/26 33/101/26
f 40/108/27 35/107/27 33/106/27 38/105/27
f 39/112/28 40/111/28 38/110/28 37/109/28
f 38/116/29 33/115/29 34/114/29 37/113/29
f 39/120/30 36/119/30 35/118/30 40/117/30
o cube
v -1.0625 0.9971608264780916 0.3945814389226994
v -1.0625 0.9616589083901012 0.5144339057812235
v -1.0625 0.038341091609898625 0.11056609421877645
v -1.0625 0.0028391735219082115 0.23041856107730058
v 0.7499999999999999 0.9616589083901014 0.5144339057812235
v 0.7499999999999999 0.9971608264780918 0.3945814389226994
v 0.7500000000000001 0.0028391735219084335 0.23041856107730058
v 0.7500000000000001 0.03834109160989885 0.11056609421877645
vt 0.015625 0.921875
vt 0.2421875 0.921875
vt 0.2421875 0.796875
vt 0.015625 0.796875
vt 0 0.921875
vt 0.015625 0.921875
vt 0.015625 0.796875
vt 0 0.796875
vt 0.2578125 0.921875
vt 0.484375 0.921875
vt 0.484375 0.796875
vt 0.2578125 0.796875
vt 0.2421875 0.921875
vt 0.2578125 0.921875
vt 0.2578125 0.796875
vt 0.2421875 0.796875
vt 0.2421875 0.921875
vt 0.015625 0.921875
vt 0.015625 0.9375
vt 0.2421875 0.9375
vt 0.46875 0.9375
vt 0.2421875 0.9375
vt 0.2421875 0.921875
vt 0.46875 0.921875
vn 3.478184828003914e-17 -0.284015344703923 0.9588197348681929
vn -1 -1.2246467991473532e-16 6.162975822039156e-33
vn -3.478184828003914e-17 0.284015344703923 -0.9588197348681929
vn 1 1.2246467991473532e-16 -6.162975822039156e-33
vn -1.1742155192656464e-16 0.958819734868193 0.28401534470392303
vn 1.1742155192656464e-16 -0.958819734868193 -0.28401534470392303
usemtl m_7118bb91-6055-9362-d056-2754b27fb61a
f 44/124/31 47/123/31 45/122/31 42/121/31
f 43/128/32 44/127/32 42/126/32 41/125/32
f 48/132/33 43/131/33 41/130/33 46/129/33
f 47/136/34 48/135/34 46/134/34 45/133/34
f 46/140/35 41/139/35 42/138/35 45/137/35
f 47/144/36 44/143/36 43/142/36 48/141/36
o cube
v 0.7499999999999999 1.0060363060000892 0.36461832220806845
v 0.7499999999999999 0.9527834288681039 0.5443970224958545
v 0.7500000000000001 0.04721657113189642 0.08060297750414544
v 0.7500000000000001 -0.006036306000089087 0.26038167779193155
v 1.5625 0.9527834288681039 0.5443970224958545
v 1.5625 1.0060363060000894 0.36461832220806845
v 1.5625 -0.006036306000088976 0.26038167779193155
v 1.5625 0.047216571131896534 0.08060297750414544
vt 0.0234375 0.625
vt 0.125 0.625
vt 0.125 0.5
vt 0.0234375 0.5
vt 0 0.625
vt 0.0234375 0.625
vt 0.0234375 0.5
vt 0 0.5
vt 0.1484375 0.625
vt 0.25 0.625
vt 0.25 0.5
vt 0.1484375 0.5
vt 0.125 0.625
vt 0.1484375 0.625
vt 0.1484375 0.5
vt 0.125 0.5
vt 0.125 0.625
vt 0.0234375 0.625
vt 0.0234375 0.6484375
vt 0.125 0.6484375
vt 0.2265625 0.6484375
vt 0.125 0.6484375
vt 0.125 0.625
vt 0.2265625 0.625
vn 3.478184828003914e-17 -0.284015344703923 0.9588197348681929
vn -1 -1.2246467991473532e-16 6.162975822039156e-33
vn -3.478184828003914e-17 0.284015344703923 -0.9588197348681929
vn 1 1.2246467991473532e-16 -6.162975822039156e-33
vn -1.1742155192656464e-16 0.958819734868193 0.28401534470392303
vn 1.1742155192656464e-16 -0.958819734868193 -0.28401534470392303
usemtl m_7118bb91-6055-9362-d056-2754b27fb61a
f 52/148/37 55/147/37 53/146/37 50/145/37
f 51/152/38 52/151/38 50/150/38 49/149/38
f 56/156/39 51/155/39 49/154/39 54/153/39
f 55/160/40 56/159/40 54/158/40 53/157/40
f 54/164/41 49/163/41 50/162/41 53/161/41
f 55/168/42 52/167/42 51/166/42 56/165/42
o cube
v 1.5625 1.012709662297366 0.5621479815398496
v 1.5625 1.0659625394293513 0.3823692812520634
v 1.5625 0.9527834288681039 0.5443970224958544
v 1.5625 1.0060363060000892 0.3646183222080682
v -1.5625 1.0659625394293513 0.3823692812520634
v -1.5625 1.012709662297366 0.5621479815398496
v -1.5625 1.0060363060000892 0.3646183222080682
v -1.5625 0.9527834288681039 0.5443970224958544
vt 0.0234375 0.453125
vt 0.4140625 0.453125
vt 0.4140625 0.4453125
vt 0.0234375 0.4453125
vt 0 0.453125
vt 0.0234375 0.453125
vt 0.0234375 0.4453125
vt 0 0.4453125
vt 0.4375 0.453125
vt 0.828125 0.453125
vt 0.828125 0.4453125
vt 0.4375 0.4453125
vt 0.4140625 0.453125
vt 0.4375 0.453125
vt 0.4375 0.4453125
vt 0.4140625 0.4453125
vt 0.4140625 0.453125
vt 0.0234375 0.453125
vt 0.0234375 0.4765625
vt 0.4140625 0.4765625
vt 0.8046875 0.4765625
vt 0.4140625 0.4765625
vt 0.4140625 0.453125
vt 0.8046875 0.453125
vn 0 0.28401534470392265 -0.958819734868193
vn 1 0 0
vn 0 -0.28401534470392265 0.958819734868193
vn -1 0 0
vn 0 0.958819734868193 0.28401534470392265
vn 0 -0.958819734868193 -0.28401534470392265
usemtl m_7118bb91-6055-9362-d056-2754b27fb61a
f 60/172/43 63/171/43 61/170/43 58/169/43
f 59/176/44 60/175/44 58/174/44 57/173/44
f 64/180/45 59/179/45 57/178/45 62/177/45
f 63/184/46 64/183/46 62/182/46 61/181/46
f 62/188/47 57/187/47 58/186/47 61/185/47
f 63/192/48 60/191/48 59/190/48 64/189/48
o cube
v 1.5625 -0.006036306000089309 0.2603816777919318
v 1.5625 0.0472165711318962 0.08060297750414558
v 1.5625 -0.06596253942935137 0.24263071874793662
v 1.5625 -0.012709662297365809 0.06285201846015043
v -1.5625 0.0472165711318962 0.08060297750414558
v -1.5625 -0.006036306000089309 0.2603816777919318
v -1.5625 -0.012709662297365809 0.06285201846015043
v -1.5625 -0.06596253942935137 0.24263071874793662
vt 0.0234375 0.421875
vt 0.4140625 0.421875
vt 0.4140625 0.4140625
vt 0.0234375 0.4140625
vt 0 0.421875
vt 0.0234375 0.421875
vt 0.0234375 0.4140625
vt 0 0.4140625
vt 0.4375 0.421875
vt 0.828125 0.421875
vt 0.828125 0.4140625
vt 0.4375 0.4140625
vt 0.4140625 0.421875
vt 0.4375 0.421875
vt 0.4375 0.4140625
vt 0.4140625 0.4140625
vt 0.4140625 0.421875
vt 0.0234375 0.421875
vt 0.0234375 0.4453125
vt 0.4140625 0.4453125
vt 0.8046875 0.4453125
vt 0.4140625 0.4453125
vt 0.4140625 0.421875
vt 0.8046875 0.421875
vn 0 0.28401534470392265 -0.958819734868193
vn 1 0 0
vn 0 -0.28401534470392265 0.958819734868193
vn -1 0 0
vn 0 0.958819734868193 0.28401534470392265
vn 0 -0.958819734868193 -0.28401534470392265
usemtl m_7118bb91-6055-9362-d056-2754b27fb61a
f 68/196/49 71/195/49 69/194/49 66/193/49
f 67/200/50 68/199/50 66/198/50 65/197/50
f 72/204/51 67/203/51 65/202/51 70/201/51
f 71/208/52 72/207/52 70/206/52 69/205/52
f 70/212/53 65/211/53 66/210/53 69/209/53
f 71/216/54 68/215/54 67/214/54 72/213/54
o cube
v -1.5625 1.0060363060000892 0.36461832220806845
v -1.5625 0.9527834288681035 0.5443970224958545
v -1.5625 0.047216571131896146 0.08060297750414544
v -1.5625 -0.00603630600008942 0.26038167779193155
v -1.0625 0.9527834288681036 0.5443970224958545
v -1.0625 1.0060363060000892 0.36461832220806845
v -1.0625 -0.006036306000089309 0.26038167779193155
v -1.0625 0.0472165711318962 0.08060297750414544
vt 0.2734375 0.625
vt 0.3359375 0.625
vt 0.3359375 0.5
vt 0.2734375 0.5
vt 0.25 0.625
vt 0.2734375 0.625
vt 0.2734375 0.5
vt 0.25 0.5
vt 0.359375 0.625
vt 0.421875 0.625
vt 0.421875 0.5
vt 0.359375 0.5
vt 0.3359375 0.625
vt 0.359375 0.625
vt 0.359375 0.5
vt 0.3359375 0.5
vt 0.3359375 0.625
vt 0.2734375 0.625
vt 0.2734375 0.6484375
vt 0.3359375 0.6484375
vt 0.3984375 0.6484375
vt 0.3359375 0.6484375
vt 0.3359375 0.625
vt 0.3984375 0.625
vn 3.478184828003914e-17 -0.284015344703923 0.9588197348681929
vn -1 -1.2246467991473532e-16 6.162975822039156e-33
vn -3.478184828003914e-17 0.284015344703923 -0.9588197348681929
vn 1 1.2246467991473532e-16 -6.162975822039156e-33
vn -1.1742155192656464e-16 0.958819734868193 0.28401534470392303
vn 1.1742155192656464e-16 -0.958819734868193 -0.28401534470392303
usemtl m_7118bb91-6055-9362-d056-2754b27fb61a
f 76/220/55 79/219/55 77/218/55 74/217/55
f 75/224/56 76/223/56 74/222/56 73/221/56
f 80/228/57 75/227/57 73/226/57 78/225/57
f 79/232/58 80/231/58 78/230/58 77/229/58
f 78/236/59 73/235/59 74/234/59 77/233/59
f 79/240/60 76/239/60 75/238/60 80/237/60
o cube
v 1.563125 1 0.453125
v 1.563125 1 -0.421875
v 1.563125 0.5 0.453125
v 1.563125 0.5 -0.421875
v 1.563125 1 -0.421875
v 1.563125 1 0.453125
v 1.563125 0.5 -0.421875
v 1.563125 0.5 0.453125
vt 0.59375 0.921875
vt 0.59375 0.921875
vt 0.59375 0.859375
vt 0.59375 0.859375
vt 0.484375 0.921875
vt 0.59375 0.921875
vt 0.59375 0.859375
vt 0.484375 0.859375
vt 0.703125 0.921875
vt 0.703125 0.921875
vt 0.703125 0.859375
vt 0.703125 0.859375
vt 0.59375 0.921875
vt 0.703125 0.921875
vt 0.703125 0.859375
vt 0.59375 0.859375
vt 0.59375 0.921875
vt 0.59375 0.921875
vt 0.59375 1.03125
vt 0.59375 1.03125
vt 0.59375 1.03125
vt 0.59375 1.03125
vt 0.59375 0.921875
vt 0.59375 0.921875
vn 0 0 -1
vn 1 0 0
vn 0 0 1
vn -1 0 0
vn 0 1 0
vn 0 -1 0
usemtl m_7118bb91-6055-9362-d056-2754b27fb61a
f 84/244/61 87/243/61 85/242/61 82/241/61
f 83/248/62 84/247/62 82/246/62 81/245/62
f 88/252/63 83/251/63 81/250/63 86/249/63
f 87/256/64 88/255/64 86/254/64 85/253/64
f 86/260/65 81/259/65 82/258/65 85/257/65
f 87/264/66 84/263/66 83/262/66 88/261/66
o cube
v -1.564 1 0.453125
v -1.564 1 -0.421875
v -1.564 0.5 0.453125
v -1.564 0.5 -0.421875
v -1.564 1 -0.421875
v -1.564 1 0.453125
v -1.564 0.5 -0.421875
v -1.564 0.5 0.453125
vt 0.59375 0.921875
vt 0.59375 0.921875
vt 0.59375 0.859375
vt 0.59375 0.859375
vt 0.484375 0.921875
vt 0.59375 0.921875
vt 0.59375 0.859375
vt 0.484375 0.859375
vt 0.703125 0.921875
vt 0.703125 0.921875
vt 0.703125 0.859375
vt 0.703125 0.859375
vt 0.59375 0.921875
vt 0.703125 0.921875
vt 0.703125 0.859375
vt 0.59375 0.859375
vt 0.59375 0.921875
vt 0.59375 0.921875
vt 0.59375 1.03125
vt 0.59375 1.03125
vt 0.59375 1.03125
vt 0.59375 1.03125
vt 0.59375 0.921875
vt 0.59375 0.921875
vn 0 0 -1
vn 1 0 0
vn 0 0 1
vn -1 0 0
vn 0 1 0
vn 0 -1 0
usemtl m_7118bb91-6055-9362-d056-2754b27fb61a
f 92/268/67 95/267/67 93/266/67 90/265/67
f 91/272/68 92/271/68 90/270/68 89/269/68
f 96/276/69 91/275/69 89/274/69 94/273/69
f 95/280/70 96/279/70 94/278/70 93/277/70
f 94/284/71 89/283/71 90/282/71 93/281/71
f 95/288/72 92/287/72 91/286/72 96/285/72
o cube
v 1.59375 0.96875 0.0625
v 1.59375 0.96875 -0.0625
v 1.59375 0.84375 0.0625
v 1.59375 0.84375 -0.0625
v -1.59375 0.96875 -0.0625
v -1.59375 0.96875 0.0625
v -1.59375 0.84375 -0.0625
v -1.59375 0.84375 0.0625
vt 0.015625 0.375
vt 0.4140625 0.375
vt 0.4140625 0.359375
vt 0.015625 0.359375
vt 0 0.375
vt 0.015625 0.375
vt 0.015625 0.359375
vt 0 0.359375
vt 0.4296875 0.375
vt 0.828125 0.375
vt 0.828125 0.359375
vt 0.4296875 0.359375
vt 0.4140625 0.375
vt 0.4296875 0.375
vt 0.4296875 0.359375
vt 0.4140625 0.359375
vt 0.4140625 0.375
vt 0.015625 0.375
vt 0.015625 0.390625
vt 0.4140625 0.390625
vt 0.8125 0.390625
vt 0.4140625 0.390625
vt 0.4140625 0.375
vt 0.8125 0.375
vn 0 0 -1
vn 1 0 0
vn 0 0 1
vn -1 0 0
vn 0 1 0
vn 0 -1 0
usemtl m_7118bb91-6055-9362-d056-2754b27fb61a
f 100/292/73 103/291/73 101/290/73 98/289/73
f 99/296/74 100/295/74 98/294/74 97/293/74
f 104/300/75 99/299/75 97/298/75 102/297/75
f 103/304/76 104/303/76 102/302/76 101/301/76
f 102/308/77 97/307/77 98/306/77 101/305/77
f 103/312/78 100/311/78 99/310/78 104/309/78
o cube
v -0.96875 0.9687500003529347 -0.0624998048532243
v -0.84375 0.9687500003529347 -0.0624998048532243
v -0.96875 0.8480092720668011 -0.030147424215409224
v -0.84375 0.8480092720668011 -0.030147424215409224
v -0.84375 0.8716928584394894 -0.424721989711625
v -0.96875 0.8716928584394894 -0.424721989711625
v -0.84375 0.7509521301533558 -0.3923696090738099
v -0.96875 0.7509521301533558 -0.3923696090738099
vt 0.359375 0.375
vt 0.40625 0.375
vt 0.40625 0.359375
vt 0.359375 0.359375
vt 0.34375 0.375
vt 0.359375 0.375
vt 0.359375 0.359375
vt 0.34375 0.359375
vt 0.421875 0.375
vt 0.46875 0.375
vt 0.46875 0.359375
vt 0.421875 0.359375
vt 0.40625 0.375
vt 0.421875 0.375
vt 0.421875 0.359375
vt 0.40625 0.359375
vt 0.40625 0.375
vt 0.359375 0.375
vt 0.359375 0.390625
vt 0.40625 0.390625
vt 0.453125 0.390625
vt 0.40625 0.390625
vt 0.40625 0.375
vt 0.453125 0.375
vn 1 8.042948193196521e-17 -2.1551014731323638e-17
vn -2.1551014731323645e-17 0.25881904510252063 0.9659258262890683
vn -1 -8.042948193196521e-17 2.1551014731323638e-17
vn 2.1551014731323645e-17 -0.25881904510252063 -0.9659258262890683
vn -8.042948193196523e-17 0.9659258262890684 -0.25881904510252063
vn 8.042948193196523e-17 -0.9659258262890684 0.25881904510252063
usemtl m_7118bb91-6055-9362-d056-2754b27fb61a
f 108/316/79 111/315/79 109/314/79 106/313/79
f 107/320/80 108/319/80 106/318/80 105/317/80
f 112/324/81 107/323/81 105/322/81 110/321/81
f 111/328/82 112/327/82 110/326/82 109/325/82
f 110/332/83 105/331/83 106/330/83 109/329/83
f 111/336/84 108/335/84 107/334/84 112/333/84
o cube
v 0.84375 0.9687501850997894 -0.06250009788970723
v 0.96875 0.9687501850997894 -0.06250009788970723
v 0.84375 0.8480094568136558 -0.030147717251892137
v 0.96875 0.8480094568136558 -0.030147717251892137
v 0.96875 0.8716930431863441 -0.42472228274810786
v 0.84375 0.8716930431863441 -0.42472228274810786
v 0.96875 0.7509523149002105 -0.39236990211029277
v 0.84375 0.7509523149002105 -0.39236990211029277
vt 0.359375 0.375
vt 0.40625 0.375
vt 0.40625 0.359375
vt 0.359375 0.359375
vt 0.34375 0.375
vt 0.359375 0.375
vt 0.359375 0.359375
vt 0.34375 0.359375
vt 0.421875 0.375
vt 0.46875 0.375
vt 0.46875 0.359375
vt 0.421875 0.359375
vt 0.40625 0.375
vt 0.421875 0.375
vt 0.421875 0.359375
vt 0.40625 0.359375
vt 0.40625 0.375
vt 0.359375 0.375
vt 0.359375 0.390625
vt 0.40625 0.390625
vt 0.453125 0.390625
vt 0.40625 0.390625
vt 0.40625 0.375
vt 0.453125 0.375
vn 1 8.042948193196521e-17 -2.1551014731323638e-17
vn -2.1551014731323645e-17 0.25881904510252063 0.9659258262890683
vn -1 -8.042948193196521e-17 2.1551014731323638e-17
vn 2.1551014731323645e-17 -0.25881904510252063 -0.9659258262890683
vn -8.042948193196523e-17 0.9659258262890684 -0.25881904510252063
vn 8.042948193196523e-17 -0.9659258262890684 0.25881904510252063
usemtl m_7118bb91-6055-9362-d056-2754b27fb61a
f 116/340/85 119/339/85 117/338/85 114/337/85
f 115/344/86 116/343/86 114/342/86 113/341/86
f 120/348/87 115/347/87 113/346/87 118/345/87
f 119/352/88 120/351/88 118/350/88 117/349/88
f 118/356/89 113/355/89 114/354/89 117/353/89
f 119/360/90 116/359/90 115/358/90 120/357/90
o cube
v 0.8437500088415252 0.8716930428146533 0.42472228557138547
v 0.9687500088415251 0.8716930435580365 0.4247222799248298
v 0.843750008098142 0.7509523145285196 0.3923699049335708
v 0.9687500080981418 0.7509523152719029 0.39236989928701516
v 0.968749991901858 0.9687501854714803 0.06250009506642926
v 0.8437499919018582 0.968750184728097 0.06250010071298492
v 0.9687499911584748 0.8480094571853466 0.030147714428614664
v 0.8437499911584749 0.8480094564419635 0.03014772007517033
vt 0.359375 0.375
vt 0.40625 0.375
vt 0.40625 0.359375
vt 0.359375 0.359375
vt 0.34375 0.375
vt 0.359375 0.375
vt 0.359375 0.359375
vt 0.34375 0.359375
vt 0.421875 0.375
vt 0.46875 0.375
vt 0.46875 0.359375
vt 0.421875 0.359375
vt 0.40625 0.375
vt 0.421875 0.375
vt 0.421875 0.359375
vt 0.40625 0.359375
vt 0.40625 0.375
vt 0.359375 0.375
vt 0.359375 0.390625
vt 0.40625 0.390625
vt 0.453125 0.390625
vt 0.40625 0.390625
vt 0.40625 0.375
vt 0.453125 0.375
vn 0.9999999999999991 5.947065301069589e-9 -4.517244544141377e-8
vn 4.517244544141376e-8 -0.2588190451025167 0.9659258262890684
vn -0.9999999999999991 -5.947065301069589e-9 4.517244544141377e-8
vn -4.517244544141376e-8 0.2588190451025167 -0.9659258262890684
vn 5.94706530106959e-9 0.9659258262890695 0.2588190451025168
vn -5.94706530106959e-9 -0.9659258262890695 -0.2588190451025168
usemtl m_7118bb91-6055-9362-d056-2754b27fb61a
f 124/364/91 127/363/91 125/362/91 122/361/91
f 123/368/92 124/367/92 122/366/92 121/365/92
f 128/372/93 123/371/93 121/370/93 126/369/93
f 127/376/94 128/375/94 126/374/94 125/373/94
f 126/380/95 121/379/95 122/378/95 125/377/95
f 127/384/96 124/383/96 123/382/96 128/381/96
o cube
v -0.9687499911584748 0.8716930428146533 0.42472228557138547
v -0.8437499911584749 0.8716930435580365 0.4247222799248298
v -0.968749991901858 0.7509523145285196 0.3923699049335708
v -0.8437499919018582 0.7509523152719029 0.39236989928701516
v -0.843750008098142 0.9687501854714803 0.06250009506642926
v -0.9687500080981418 0.968750184728097 0.06250010071298492
v -0.8437500088415252 0.8480094571853466 0.030147714428614664
v -0.9687500088415251 0.8480094564419635 0.03014772007517033
vt 0.359375 0.375
vt 0.40625 0.375
vt 0.40625 0.359375
vt 0.359375 0.359375
vt 0.34375 0.375
vt 0.359375 0.375
vt 0.359375 0.359375
vt 0.34375 0.359375
vt 0.421875 0.375
vt 0.46875 0.375
vt 0.46875 0.359375
vt 0.421875 0.359375
vt 0.40625 0.375
vt 0.421875 0.375
vt 0.421875 0.359375
vt 0.40625 0.359375
vt 0.40625 0.375
vt 0.359375 0.375
vt 0.359375 0.390625
vt 0.40625 0.390625
vt 0.453125 0.390625
vt 0.40625 0.390625
vt 0.40625 0.375
vt 0.453125 0.375
vn 0.9999999999999991 5.947065301069589e-9 -4.517244544141377e-8
vn 4.517244544141376e-8 -0.2588190451025167 0.9659258262890684
vn -0.9999999999999991 -5.947065301069589e-9 4.517244544141377e-8
vn -4.517244544141376e-8 0.2588190451025167 -0.9659258262890684
vn 5.94706530106959e-9 0.9659258262890695 0.2588190451025168
vn -5.94706530106959e-9 -0.9659258262890695 -0.2588190451025168
usemtl m_7118bb91-6055-9362-d056-2754b27fb61a
f 132/388/97 135/387/97 133/386/97 130/385/97
f 131/392/98 132/391/98 130/390/98 129/389/98
f 136/396/99 131/395/99 129/394/99 134/393/99
f 135/400/100 136/399/100 134/398/100 133/397/100
f 134/404/101 129/403/101 130/402/101 133/401/101
f 135/408/102 132/407/102 131/406/102 136/405/102